<?xml version="1.0" encoding="utf-8"?>
<!-- Generator: Adobe Illustrator 27.5.0, SVG Export Plug-In . SVG Version: 6.00 Build 0)  -->
<svg version="1.1" xmlns="http://www.w3.org/2000/svg" xmlns:xlink="http://www.w3.org/1999/xlink" x="0px" y="0px"
	 viewBox="0 0 500 500" style="enable-background:new 0 0 500 500;" xml:space="preserve">
<g id="BACKGROUND">
	<g>
		<defs>
			<rect id="SVGID_1_" width="500" height="500"/>
		</defs>
		<clipPath id="SVGID_00000034806369307692254060000000540783583617386685_">
			<use xlink:href="#SVGID_1_"  style="overflow:visible;"/>
		</clipPath>
		
			<rect style="clip-path:url(#SVGID_00000034806369307692254060000000540783583617386685_);fill:#FFFFFF;" width="500" height="500"/>
		<g style="clip-path:url(#SVGID_00000034806369307692254060000000540783583617386685_);">
			<rect x="-6.401" y="-5.573" style="fill:#ADF1FF;" width="509.946" height="508.757"/>
			<g>
				<g style="opacity:0.58;">
					
						<linearGradient id="SVGID_00000139988645068501422790000004957665705977518245_" gradientUnits="userSpaceOnUse" x1="64.0019" y1="-303.4074" x2="64.0019" y2="355.6034" gradientTransform="matrix(0.9661 0.258 -0.258 0.9661 113.6548 -71.1066)">
						<stop  offset="0" style="stop-color:#FFFFFF"/>
						<stop  offset="1" style="stop-color:#FFFFFF;stop-opacity:0"/>
					</linearGradient>
					<path style="fill:url(#SVGID_00000139988645068501422790000004957665705977518245_);" d="M303.917,107.239
						c-10.756-17.627-31.591-24.054-49.818-16.724c-0.249-1.076-0.552-2.146-0.918-3.207c-1.482-4.293-3.79-7.987-6.662-10.979
						c4.924-9.191,6.454-20.31,3.378-30.961c-5.075-17.571-21.014-28.122-37.783-26.341C200.141-0.056,177.041-8.921,154.95-1.082
						c-1.897,0.673-3.729,1.462-5.505,2.338c-5.71-14.343-18.05-23.846-32.076-25.902c0.197-0.452,0.382-0.909,0.56-1.369H-18.403
						v207.616l151.873,120.63l59.89-82.956c2.287,0.591,4.617,1.009,6.973,1.264c0.342,1.341,0.83,2.655,1.512,3.907
						c4.335,7.959,14.063,10.477,21.727,5.624c5.637-3.57,8.575-10.132,8.016-16.521c0.437-0.26,0.876-0.509,1.309-0.783
						c13.17-8.339,21.842-21.683,25.048-36.241c10.805,2.41,22.622,0.332,32.764-6.805
						C310.544,155.763,316.457,127.789,303.917,107.239z"/>
				</g>
				<g style="opacity:0.21;">
					
						<linearGradient id="SVGID_00000069376023273532074150000002167173556890160564_" gradientUnits="userSpaceOnUse" x1="286.5883" y1="-71.2477" x2="286.5883" y2="280.1279" gradientTransform="matrix(0.9765 -0.2156 0.2156 0.9765 -60.0285 89.1963)">
						<stop  offset="0" style="stop-color:#FFFFFF"/>
						<stop  offset="1" style="stop-color:#FFFFFF;stop-opacity:0"/>
					</linearGradient>
					<path style="fill:url(#SVGID_00000069376023273532074150000002167173556890160564_);" d="M456.106-26.015
						c-0.794,4.656-0.714,9.327,0.181,13.802c-3.494,3.293-6.445,7.204-8.672,11.616c-10.294,0.762-19.8,5.304-26.851,12.447
						c-22.301-12.187-50.301-4.151-62.712,18.087c-4.882,8.748-6.615,18.393-5.593,27.646c-9.55,4.053-17.361,10.759-22.805,18.992
						c-8.035-9.252-20.971-13.572-33.54-10.008c-11.4,3.233-19.654,12.143-22.57,22.795c-9.399-16.348-29.012-24.87-47.977-19.491
						c-5.456,1.548-10.35,4.108-14.546,7.412c-0.07-0.283-0.137-0.566-0.217-0.848c-3.935-13.873-18.37-21.93-32.243-17.995
						c-9.251,2.624-15.909,9.919-18.156,18.601c-0.885-0.012-1.769-0.002-2.651,0.049c-1.823-4.415-4.742-8.452-8.711-11.675
						c-12.025-9.765-29.38-8.556-39.962,2.361c-10.842-2.732-22.774,0.806-30.286,10.057C74,83.739,71.853,90.932,72.2,97.977
						c-13.767-3.057-28.605,0.923-38.998,11.385c-1.341-1.371-2.763-2.688-4.288-3.926c-13.76-11.174-31.639-13.854-47.318-8.72
						v267.639l501.55-142.244c12.545,4.26,26.53,2.354,37.504-5.249V-26.015H456.106z M146.392,111.465
						c-0.004,0.005-0.007,0.01-0.011,0.015c-0.09-0.303-0.189-0.604-0.286-0.905c0.389-0.017,0.777-0.044,1.165-0.076
						C146.969,110.817,146.668,111.124,146.392,111.465z M163.787,103.74c0.793-0.662,1.555-1.372,2.287-2.127
						c0.126,0.031,0.25,0.069,0.376,0.099c0.08,0.796,0.193,1.588,0.325,2.378C165.786,103.896,164.788,103.79,163.787,103.74z"/>
				</g>
				
					<linearGradient id="SVGID_00000024682050065504897470000012673087894260582825_" gradientUnits="userSpaceOnUse" x1="375.7025" y1="6.6618" x2="375.7025" y2="408.0012">
					<stop  offset="0" style="stop-color:#FFFFFF"/>
					<stop  offset="1" style="stop-color:#FFFFFF;stop-opacity:0"/>
				</linearGradient>
				<path style="opacity:0.64;fill:url(#SVGID_00000024682050065504897470000012673087894260582825_);" d="M520.652,38.054
					c-11.193,0.792-21.918,5.732-29.797,14.145c-5.181-1.111-10.433-1.282-15.534-0.582c-4.711-5.654-11.001-10.108-18.502-12.591
					c-20.192-6.683-41.882,3.281-50.211,22.407c-10.872-1.142-21.873,4.178-27.472,14.357c-3.028,5.506-4.01,11.585-3.199,17.364
					c-0.462,1.064-0.887,2.153-1.259,3.276c-0.011,0.033-0.019,0.067-0.031,0.1c-7.676-5.95-17.313-9.488-27.777-9.453
					c-24.936,0.083-45.084,20.365-45.002,45.301c0.002,0.498,0.025,0.991,0.043,1.486c-6.106-0.349-12.369,1.283-17.75,5.09
					c-12.624,8.931-15.618,26.405-6.688,39.028c1.355,1.916,2.909,3.606,4.61,5.07c-6.147,11.472-7.139,25.27-2.327,37.665
					c-10.855-4.737-23.849-3.846-34.223,3.492c-15.77,11.156-19.51,32.984-8.354,48.754c7.466,10.554,19.711,15.71,31.721,14.629
					c1.061,6.591,3.6,13.047,7.715,18.865c8.592,12.146,22.087,18.759,35.9,19.064c-1.524,8.834,0.327,18.249,5.913,26.145
					c7.466,10.554,19.711,15.71,31.721,14.629c1.061,6.591,3.6,13.047,7.715,18.865c10.05,14.207,26.808,20.839,42.936,18.662
					l2.957,4.179l17.043-12.057c0,0,0,0,0,0c0,0,0,0,0,0l99.85-70.637V38.054z"/>
				<g style="opacity:0.66;">
					
						<linearGradient id="SVGID_00000157289169034508121870000014294810392362214030_" gradientUnits="userSpaceOnUse" x1="178.8431" y1="92.4687" x2="178.8431" y2="441.1738" gradientTransform="matrix(0.9999 0.0157 -0.0157 0.9999 22.3063 -67.6772)">
						<stop  offset="0" style="stop-color:#FFFFFF"/>
						<stop  offset="1" style="stop-color:#FFFFFF;stop-opacity:0"/>
					</linearGradient>
					<path style="fill:url(#SVGID_00000157289169034508121870000014294810392362214030_);" d="M-18.403,369.541l430.157-3.953
						c-12.098-70.324-19.127-141.449-27.344-212.366c-4.689-2.466-10.007-3.909-15.667-4.008
						c-14.034-0.247-26.279,7.796-32.081,19.613c-7.916-7.054-17.872-11.871-28.904-13.454c-1.482-9.89-5.934-19.431-13.409-27.173
						c-19.002-19.683-50.29-20.331-70.1-1.544c-9.286-5.481-20.407-7.584-31.307-5.546c-3.525-3.969-7.665-7.221-12.199-9.679
						c-0.452-7.358-2.891-14.685-7.477-21.136c-10.702-15.058-29.732-20.676-46.378-15.059c1.436-15.357-5.015-31.057-18.383-40.803
						C88.32,19.715,60.026,24.149,45.31,44.334c-5.591,7.668-8.411,16.507-8.66,25.326c-3.969,1.472-7.663,3.776-10.804,6.866
						c-7.126-4.989-15.764-7.981-25.115-8.146c-6.813-0.12-13.292,1.286-19.133,3.883V369.541z"/>
				</g>
			</g>
		</g>
	</g>
</g>
<g id="OBJECTS">
	<g>
		<rect y="425.965" style="fill:#545862;" width="500" height="75.772"/>
		<path style="fill:#3B4152;" d="M478.225,432.351c0-2.5-76.421-4.527-170.692-4.527c-94.271,0-170.692,2.027-170.692,4.527
			s76.421,4.527,170.692,4.527C401.804,436.878,478.225,434.851,478.225,432.351z"/>
		<g>
			<g>
				<rect x="399.001" y="143.036" style="fill:#7CBCDE;" width="28.892" height="191.241"/>
				<polygon style="fill:#7CBCDE;" points="399.213,334.276 399.213,190.315 371.497,190.315 356.589,205.738 356.589,334.276 				
					"/>
				<g>
					<g>
						<polygon style="fill:#58A0D2;" points="423.798,425.965 356.413,425.965 355.772,124.751 423.798,117.71 						"/>
						<g>
							<rect x="352.73" y="128.772" style="fill:#6FBCDD;" width="37.658" height="3.313"/>
							<rect x="352.73" y="134.822" style="fill:#6FBCDD;" width="37.658" height="3.313"/>
							<rect x="352.73" y="140.872" style="fill:#6FBCDD;" width="37.658" height="3.313"/>
							<rect x="352.73" y="146.922" style="fill:#6FBCDD;" width="37.658" height="3.312"/>
							<rect x="352.73" y="152.971" style="fill:#6FBCDD;" width="37.658" height="3.313"/>
							<rect x="352.73" y="159.021" style="fill:#6FBCDD;" width="37.658" height="3.312"/>
							<rect x="352.73" y="165.071" style="fill:#6FBCDD;" width="37.658" height="3.312"/>
							<rect x="352.73" y="171.12" style="fill:#6FBCDD;" width="37.658" height="3.313"/>
							<rect x="352.73" y="177.17" style="fill:#6FBCDD;" width="37.658" height="3.312"/>
						</g>
						<polygon style="fill:#98DDEB;" points="423.798,334.276 410.127,334.276 409.346,124.292 423.798,117.71 						"/>
					</g>
				</g>
			</g>
			<rect x="393.528" y="325.309" style="fill:#7CBCDE;" width="28.892" height="100.656"/>
			<polygon style="fill:#7CBCDE;" points="237.375,425.965 237.375,233.444 307.323,200.957 333.263,200.957 333.263,195.223 
				334.272,195.223 334.272,246.075 339.583,246.075 339.583,211.887 368.171,211.887 368.171,246.075 372.957,246.075 
				372.957,298.775 378.335,298.775 378.335,425.965 			"/>
			<rect x="465.411" y="341.268" style="fill:#7CBCDE;" width="14.375" height="84.697"/>
			<rect x="470.262" y="302.719" style="fill:#7CBCDE;" width="21.919" height="123.246"/>
			
				<rect x="448.483" y="211.16" transform="matrix(-1 -1.224647e-16 1.224647e-16 -1 931.353 635.8417)" style="fill:#7CBCDE;" width="34.387" height="213.522"/>
			<rect x="114.004" y="222.625" style="fill:#7CBCDE;" width="38.159" height="191.271"/>
			<rect x="96.295" y="258.563" style="fill:#7CBCDE;" width="38.159" height="167.173"/>
			<rect x="420.404" y="199.107" style="fill:#98DDEB;" width="23.566" height="167.26"/>
			<path style="fill:#7CBCDE;" d="M233.582,279.731v-57.799c-0.139-0.206-0.25-0.417-0.373-0.625h-35.635V215.9h-7.536v5.408
				h-14.178v12.997H149.92v-6.488h-2.372v198.149h100.96V279.731H233.582z"/>
			<g>
				<g>
					<g>
						
							<rect x="432.892" y="255.656" transform="matrix(-1 -1.224647e-16 1.224647e-16 -1 877.8771 512.3986)" style="fill:#98DDEB;" width="12.094" height="1.086"/>
						
							<rect x="429.869" y="256.742" transform="matrix(-1 -1.224647e-16 1.224647e-16 -1 877.8773 550.3689)" style="fill:#58A0D2;" width="18.14" height="36.884"/>
					</g>
					<g>
						
							<rect x="397.257" y="249.161" transform="matrix(-1 -1.224647e-16 1.224647e-16 -1 833.1727 598.5663)" style="fill:#6FBCDD;" width="38.658" height="100.244"/>
						<rect x="412.196" y="275.59" style="fill:#6FBCDD;" width="52.265" height="150.374"/>
						<polygon style="fill:#98DDEB;" points="386.878,294.424 386.878,425.965 416.25,425.965 416.25,313.292 401.55,294.424 						
							"/>
					</g>
				</g>
			</g>
			<g>
				<g>
					<rect x="284.541" y="138.667" style="fill:#98DDEB;" width="19.519" height="129.953"/>
					<rect x="248.044" y="143.573" style="fill:#7CB8DC;" width="71.087" height="160.58"/>
					<rect x="298.384" y="143.573" style="fill:#58A0D2;" width="20.747" height="160.58"/>
				</g>
				<g>
					<g>
						<rect x="314.245" y="263.443" style="fill:#58A0D2;" width="12.905" height="3.438"/>
						<rect x="312.597" y="266.134" style="fill:#58A0D2;" width="16.2" height="1.495"/>
						<rect x="308.547" y="267.629" style="fill:#98DDEB;" width="24.3" height="25.031"/>
					</g>
					<polygon style="fill:#7CB8DC;" points="292.802,207.701 292.802,425.965 237.375,425.965 237.375,233.444 					"/>
					<g>
						<rect x="289.175" y="211.16" style="opacity:0.43;fill:#58A0D2;" width="4.451" height="215.048"/>
						<rect x="279.284" y="211.16" style="opacity:0.43;fill:#58A0D2;" width="4.451" height="215.048"/>
						<rect x="269.393" y="211.16" style="opacity:0.43;fill:#58A0D2;" width="4.451" height="215.048"/>
						<rect x="259.502" y="211.16" style="opacity:0.43;fill:#58A0D2;" width="4.451" height="215.048"/>
					</g>
					<rect x="305.061" y="255.006" style="fill:#98DDEB;" width="33.017" height="170.959"/>
					<g>
						
							<rect x="310.758" y="271.79" transform="matrix(-1 -1.224647e-16 1.224647e-16 -1 624.2286 652.4525)" style="fill:#98DDEB;" width="2.712" height="108.873"/>
						
							<rect x="316.785" y="271.79" transform="matrix(-1 -1.224647e-16 1.224647e-16 -1 636.2827 652.4525)" style="fill:#98DDEB;" width="2.712" height="108.873"/>
						
							<rect x="322.812" y="271.79" transform="matrix(-1 -1.224647e-16 1.224647e-16 -1 648.3369 652.4525)" style="fill:#98DDEB;" width="2.712" height="108.873"/>
						
							<rect x="328.839" y="271.79" transform="matrix(-1 -1.224647e-16 1.224647e-16 -1 660.3913 652.4525)" style="fill:#98DDEB;" width="2.712" height="108.873"/>
					</g>
					
						<rect x="291.7" y="154.72" transform="matrix(-1 -1.224647e-16 1.224647e-16 -1 602.4778 329.7031)" style="fill:#98DDEB;" width="19.077" height="20.262"/>
				</g>
			</g>
			<polygon style="fill:#58A0D2;" points="474.002,211.16 447.996,211.16 447.996,340.396 443.97,340.396 443.97,425.965 
				474.002,425.965 			"/>
			<rect x="14.448" y="325.309" style="fill:#7CBCDE;" width="28.892" height="100.656"/>
			
				<rect x="56.057" y="202.966" transform="matrix(-1 -1.224647e-16 1.224647e-16 -1 157.0034 627.256)" style="fill:#7CBCDE;" width="44.889" height="221.324"/>
			<g>
				<g>
					
						<rect x="63.343" y="210.102" transform="matrix(-1 -1.224647e-16 1.224647e-16 -1 142.0142 421.581)" style="fill:#98DDEB;" width="15.328" height="1.377"/>
					
						<rect x="59.511" y="211.479" transform="matrix(-1 -1.224647e-16 1.224647e-16 -1 142.0144 446.0041)" style="fill:#58A0D2;" width="22.992" height="23.046"/>
				</g>
				
					<rect x="34.808" y="185.151" transform="matrix(-1 -1.224647e-16 1.224647e-16 -1 101.5489 517.2638)" style="fill:#58A0D2;" width="31.934" height="146.962"/>
				<rect x="42.42" y="235.368" style="fill:#6FBCDD;" width="60.936" height="190.597"/>
				<g>
					<g>
						<polygon style="fill:#98DDEB;" points="8.401,299.682 8.401,307.131 6.879,307.131 6.879,322.077 1.724,322.077 
							1.724,425.965 28.701,425.965 28.701,299.682 						"/>
					</g>
					<rect x="13.643" y="284.111" style="fill:#7CB8DC;" width="35.051" height="141.854"/>
					<g>
						<rect x="23.591" y="306.444" style="fill:#58A0D2;" width="37.658" height="4.97"/>
						<rect x="23.591" y="315.52" style="fill:#58A0D2;" width="37.658" height="4.97"/>
						<rect x="23.591" y="324.597" style="fill:#58A0D2;" width="37.658" height="4.97"/>
						<rect x="23.591" y="333.673" style="fill:#58A0D2;" width="37.658" height="4.97"/>
						<rect x="23.591" y="342.749" style="fill:#58A0D2;" width="37.658" height="4.97"/>
						<rect x="23.591" y="351.825" style="fill:#58A0D2;" width="37.658" height="4.969"/>
						<rect x="23.591" y="360.901" style="fill:#58A0D2;" width="37.658" height="4.97"/>
						<rect x="23.591" y="369.977" style="fill:#58A0D2;" width="37.658" height="4.97"/>
						<rect x="23.591" y="379.054" style="fill:#58A0D2;" width="37.658" height="4.969"/>
					</g>
				</g>
			</g>
			<g>
				<rect x="59.146" y="183.663" style="fill:#98DDEB;" width="17.925" height="18.447"/>
				<g>
					<polygon style="fill:#58A0D2;" points="164.241,425.965 162.16,309.909 159.664,309.909 159.664,298.014 118.607,293.763 
						118.607,317.188 113.768,317.188 113.768,189.581 55.422,189.581 55.422,314.263 50.166,314.263 50.166,425.965 					"/>
					<g>
						<rect x="139.747" y="306.948" style="fill:#7CBCDE;" width="5.439" height="6.657"/>
						<rect x="139.747" y="319.107" style="fill:#7CBCDE;" width="5.439" height="6.657"/>
						<rect x="139.747" y="331.266" style="fill:#7CBCDE;" width="5.439" height="6.657"/>
						<rect x="139.747" y="343.424" style="fill:#7CBCDE;" width="5.439" height="6.657"/>
						<rect x="139.747" y="355.583" style="fill:#7CBCDE;" width="5.439" height="6.657"/>
						<rect x="139.747" y="367.741" style="fill:#7CBCDE;" width="5.439" height="6.657"/>
						<rect x="139.747" y="379.9" style="fill:#7CBCDE;" width="5.439" height="6.657"/>
						<rect x="139.747" y="392.059" style="fill:#7CBCDE;" width="5.439" height="6.657"/>
						<rect x="139.747" y="404.218" style="fill:#7CBCDE;" width="5.439" height="6.657"/>
					</g>
				</g>
			</g>
			<polygon style="fill:#58A0D2;" points="166.018,185.949 166.018,285.178 221.647,285.178 221.647,196.891 212.651,185.949 			"/>
			<g>
				
					<rect x="198.406" y="242.655" transform="matrix(-1 -1.224647e-16 1.224647e-16 -1 445.5809 605.6947)" style="fill:#98DDEB;" width="48.768" height="120.384"/>
			</g>
			<rect x="151.53" y="234.275" style="fill:#6FBCDD;" width="64.362" height="191.69"/>
			<rect x="161.985" y="272.115" style="fill:#7CB8DC;" width="41.438" height="153.21"/>
			<g>
				
					<rect x="455.144" y="346.708" transform="matrix(-1 -1.224647e-16 1.224647e-16 -1 930.1064 771.3895)" style="fill:#7CBCDE;" width="19.818" height="77.974"/>
				<polygon style="fill:#58A0D2;" points="453.279,279.393 453.279,425.965 485.115,425.965 485.115,337.06 481.609,337.06 
					481.609,282.327 				"/>
				<rect x="457.358" y="321.666" style="fill:#98DDEB;" width="7.781" height="11.478"/>
				<g>
					<rect x="466.352" y="356.296" style="fill:#7CBCDE;" width="13.623" height="3.722"/>
					<rect x="466.352" y="363.095" style="fill:#7CBCDE;" width="13.623" height="3.722"/>
					<rect x="466.352" y="369.893" style="fill:#7CBCDE;" width="13.623" height="3.722"/>
					<rect x="466.352" y="376.691" style="fill:#7CBCDE;" width="13.623" height="3.722"/>
					<rect x="466.352" y="383.489" style="fill:#7CBCDE;" width="13.623" height="3.722"/>
					<rect x="466.352" y="390.288" style="fill:#7CBCDE;" width="13.623" height="3.722"/>
					<rect x="466.352" y="397.086" style="fill:#7CBCDE;" width="13.623" height="3.722"/>
					<rect x="466.352" y="403.884" style="fill:#7CBCDE;" width="13.623" height="3.722"/>
					<rect x="466.352" y="410.683" style="fill:#7CBCDE;" width="13.623" height="3.722"/>
				</g>
			</g>
			<g>
				<rect x="69.744" y="284.426" style="fill:#7CBCDE;" width="35.391" height="139.247"/>
				
					<rect x="87.286" y="239.706" transform="matrix(-1 -1.224647e-16 1.224647e-16 -1 188.4678 499.9098)" style="fill:#98DDEB;" width="13.896" height="20.498"/>
				<polygon style="fill:#58A0D2;" points="108.467,245.686 108.467,425.965 51.614,425.965 54.461,267.197 57.875,267.197 
					57.875,250.925 				"/>
				<g>
					
						<rect x="60.793" y="301.549" transform="matrix(-1 -1.224647e-16 1.224647e-16 -1 145.915 609.7461)" style="fill:#7CBCDE;" width="24.328" height="6.647"/>
					
						<rect x="60.793" y="313.69" transform="matrix(-1 -1.224647e-16 1.224647e-16 -1 145.915 634.0273)" style="fill:#7CBCDE;" width="24.328" height="6.647"/>
					
						<rect x="60.793" y="325.831" transform="matrix(-1 -1.224647e-16 1.224647e-16 -1 145.915 658.3086)" style="fill:#7CBCDE;" width="24.328" height="6.647"/>
					
						<rect x="60.793" y="337.971" transform="matrix(-1 -1.224647e-16 1.224647e-16 -1 145.915 682.5893)" style="fill:#7CBCDE;" width="24.328" height="6.647"/>
					
						<rect x="60.793" y="350.112" transform="matrix(-1 -1.224647e-16 1.224647e-16 -1 145.915 706.8705)" style="fill:#7CBCDE;" width="24.328" height="6.647"/>
					
						<rect x="60.793" y="362.252" transform="matrix(-1 -1.224647e-16 1.224647e-16 -1 145.915 731.1517)" style="fill:#7CBCDE;" width="24.328" height="6.647"/>
					
						<rect x="60.793" y="374.393" transform="matrix(-1 -1.224647e-16 1.224647e-16 -1 145.915 755.4329)" style="fill:#7CBCDE;" width="24.328" height="6.647"/>
					
						<rect x="60.793" y="386.533" transform="matrix(-1 -1.224647e-16 1.224647e-16 -1 145.915 779.7141)" style="fill:#7CBCDE;" width="24.328" height="6.647"/>
					
						<rect x="60.793" y="398.674" transform="matrix(-1 -1.224647e-16 1.224647e-16 -1 145.915 803.9952)" style="fill:#7CBCDE;" width="24.328" height="6.647"/>
				</g>
			</g>
		</g>
		<g>
			<path style="fill:#EC6100;" d="M407.616,345.059l7.92-8.062c1.202-1.223,2.845-1.912,4.56-1.912h5.479
				c3.996,0,7.012,3.625,6.285,7.554l0,0c-0.488,2.641-2.575,4.695-5.224,5.141l-12.643,2.129c-0.158,0.027-0.318,0.04-0.478,0.04
				h-3.848c-2.267,0-3.643-2.502-2.428-4.416l0,0C407.348,345.362,407.474,345.203,407.616,345.059z"/>
			<g>
				
					<ellipse transform="matrix(0.0091 -1 1 0.0091 10.4958 827.1053)" style="fill:#2F2F2F;" cx="422.592" cy="408.257" rx="23.537" ry="13.323"/>
				<path style="fill:#2F2F2F;" d="M422.766,384.72c0.027,0,0.053,0.004,0.079,0.004v-0.004l16.097,0.142
					c7.358,0.027,13.245,10.586,13.149,23.585c-0.096,12.999-6.138,23.514-13.497,23.487c-0.1,0-8.454-0.123-8.553-0.127
					l-7.327-0.027c-0.099,0.003-0.198,0.012-0.297,0.012c-7.358-0.027-13.245-10.586-13.149-23.585
					C409.365,395.209,415.408,384.694,422.766,384.72z"/>
				
					<ellipse transform="matrix(0.0091 -1 1 0.0091 10.4969 827.1063)" style="fill:#2F2F2F;" cx="422.592" cy="408.257" rx="18.2" ry="10.302"/>
				<path style="fill:#2F2F2F;" d="M417.042,408.235c-0.05,6.797,2.667,12.317,6.067,12.33c3.401,0.012,6.198-5.488,6.248-12.285
					c0.05-6.797-2.667-12.317-6.067-12.329C419.889,395.938,417.092,401.438,417.042,408.235z"/>
				<path style="fill:#ECE8E2;" d="M411.701,408.217c-0.078,10.626,4.734,19.258,10.749,19.279
					c6.015,0.022,10.954-8.574,11.033-19.2c0.078-10.626-4.734-19.257-10.749-19.279
					C416.719,388.995,411.78,397.591,411.701,408.217z M415.518,408.231c0.051-6.903,3.26-12.487,7.167-12.472
					c3.907,0.014,7.034,5.622,6.983,12.524c-0.051,6.902-3.26,12.487-7.167,12.472C418.593,420.741,415.467,415.133,415.518,408.231
					z"/>
				<path style="fill:#FFBB00;" d="M417.85,408.238c-0.036,4.155,1.769,7.529,3.613,7.53c1.843,0.002,3.367-3.365,3.404-7.52
					c0.036-4.155-1.429-7.524-3.273-7.526C419.75,400.721,417.886,404.083,417.85,408.238z"/>
			</g>
			<g>
				<defs>
					<path id="SVGID_00000143578208121829822810000001218597101047432629_" d="M237.846,335.858l53.245,36.167l79.441,42.918h83.401
						c10.555,0,14.15-7.175,14.15-13.406c0-18.089-0.337-24.296-6.478-31.217c-8.335-9.393-38.291-24.163-38.291-24.163
						l-30.554-10.301H237.846z"/>
				</defs>
				<clipPath id="SVGID_00000080920849217548388460000002132332865995003572_">
					<use xlink:href="#SVGID_00000143578208121829822810000001218597101047432629_"  style="overflow:visible;"/>
				</clipPath>
				<path style="clip-path:url(#SVGID_00000080920849217548388460000002132332865995003572_);fill:#FFBC0B;" d="M237.846,335.858
					l53.245,36.167l79.441,42.918h83.401c10.555,0,14.15-7.175,14.15-13.406c0-18.089-0.337-24.296-6.478-31.217
					c-8.335-9.393-38.291-24.163-38.291-24.163l-30.554-10.301H237.846z"/>
				<g style="clip-path:url(#SVGID_00000080920849217548388460000002132332865995003572_);">
					<defs>
						<path id="SVGID_00000073690872601023069220000009320193040133304214_" d="M361.811,395.676l-1.18-6.784
							c-0.353-2.028,1.513-3.74,3.504-3.215l18.196,4.806c0.615,0.162,1.157,0.527,1.538,1.036l3.863,5.15
							c0.533,0.711,1.371,1.13,2.259,1.13h5.741c1.782,0,3.119-1.631,2.77-3.378l-2.123-10.613
							c-0.183-0.916-0.807-1.682-1.668-2.047l-23.274-9.862c-0.876-0.371-1.507-1.159-1.677-2.095l-0.795-4.375
							c-0.344-1.892,1.262-3.567,3.167-3.303l27.735,3.852c0.129,0.018,0.259,0.027,0.389,0.027h49.129
							c0.657,0,1.293-0.229,1.799-0.647l7.075-5.845c1.249-1.032,3.107-0.804,4.07,0.499l3.973,5.375
							c0.959,1.298,0.638,3.134-0.705,4.029l-9.717,6.478c-0.676,0.451-1.126,1.171-1.233,1.977l-2.358,17.688
							c-0.055,0.414,0.351,0.738,0.743,0.591l4.588-1.721c0.99-0.371,1.69-1.264,1.813-2.314l0.511-4.347
							c0.107-0.91,0.648-1.711,1.453-2.15l4.166-2.273c1.902-1.038,4.217,0.365,4.176,2.532l-0.15,8.102
							c-0.112,6.043-1.099,10.884-7.144,10.884h-89.71C367.345,404.865,362.735,400.988,361.811,395.676z"/>
					</defs>
					<clipPath id="SVGID_00000168795330207995508820000002460740179880158114_">
						<use xlink:href="#SVGID_00000073690872601023069220000009320193040133304214_"  style="overflow:visible;"/>
					</clipPath>
					<path style="clip-path:url(#SVGID_00000168795330207995508820000002460740179880158114_);fill:#FF9300;" d="M361.811,395.676
						l-1.18-6.784c-0.353-2.028,1.513-3.74,3.504-3.215l18.196,4.806c0.615,0.162,1.157,0.527,1.538,1.036l3.863,5.15
						c0.533,0.711,1.371,1.13,2.259,1.13h5.741c1.782,0,3.119-1.631,2.77-3.378l-2.123-10.613c-0.183-0.916-0.807-1.682-1.668-2.047
						l-23.274-9.862c-0.876-0.371-1.507-1.159-1.677-2.095l-0.795-4.375c-0.344-1.892,1.262-3.567,3.167-3.303l27.735,3.852
						c0.129,0.018,0.259,0.027,0.389,0.027h51.934c0.657,0,1.293-0.229,1.799-0.647l4.27-5.845c1.249-1.032,3.107-0.804,4.07,0.499
						l3.973,5.375c0.959,1.298,0.638,3.134-0.705,4.029l-9.717,6.478c-0.676,0.451-1.126,1.171-1.233,1.977l-1.857,13.93
						c-0.282,2.115,1.793,3.767,3.791,3.018l1.039-0.39c0.99-0.371,1.69-1.264,1.813-2.314l0.511-4.347
						c0.107-0.91,0.648-1.711,1.453-2.15l4.166-2.273c1.902-1.038,4.217,0.365,4.176,2.532l-0.15,8.102
						c-0.112,6.043,1.65,10.884-4.395,10.884h-92.458C367.345,404.865,362.735,400.988,361.811,395.676z"/>
					<polygon style="clip-path:url(#SVGID_00000168795330207995508820000002460740179880158114_);fill:#2F2F2F;" points="
						404.019,377.935 406.094,398.186 448.596,398.186 449.718,377.818 					"/>
					<path style="clip-path:url(#SVGID_00000168795330207995508820000002460740179880158114_);fill:#FFBC0B;" d="M372.736,399.865
						c-2.968,0-5.49-2.122-5.999-5.046l-0.598-3.44l14.184,3.746l3.409,4.546c0.05,0.066,0.1,0.131,0.15,0.194H372.736z
						 M460.659,399.231c0.027-0.068,0.054-0.138,0.081-0.208l1.847-4.864l7.683-6.546l0.423,4.018
						c-0.276,3.128-1.461,4.66-2.749,5.498C463.715,399.878,460.659,399.231,460.659,399.231z"/>
				</g>
				<path style="clip-path:url(#SVGID_00000080920849217548388460000002132332865995003572_);fill:#FEFD8F;" d="M383.388,375.052
					L383.388,375.052c1.415-2.426,0.705-5.533-1.623-7.103l-12.746-8.596c-1.368-0.923-2.99-1.398-4.64-1.358l-12.871,0.306
					c-1.31,0.031-2.033,1.533-1.241,2.576l4.715,6.215c1.998,2.634,4.894,4.441,8.138,5.078l18.571,3.648
					C382.362,375.95,383.043,375.642,383.388,375.052z"/>
				<path style="clip-path:url(#SVGID_00000080920849217548388460000002132332865995003572_);fill:#FEFD8F;" d="M448.632,375.052
					L448.632,375.052c-0.906-2.426-0.451-5.533,1.039-7.103l8.159-8.596c0.876-0.923,1.914-1.397,2.97-1.358l8.239,0.306
					c0.838,0.031,1.301,1.533,0.794,2.576l-3.018,6.215c-1.279,2.634-3.133,4.441-5.209,5.078l-11.888,3.648
					C449.288,375.95,448.852,375.642,448.632,375.052z"/>
				
					<rect x="410.739" y="385.436" transform="matrix(-1 -1.224647e-16 1.224647e-16 -1 856.5837 781.4695)" style="clip-path:url(#SVGID_00000080920849217548388460000002132332865995003572_);fill:#FFBB00;" width="35.105" height="10.598"/>
			</g>
			<g>
				
					<ellipse transform="matrix(0.0091 -1 1 0.0091 -85.3271 730.4039)" style="fill:#131313;" cx="325.887" cy="408.257" rx="23.537" ry="13.323"/>
				<path style="fill:#131313;" d="M326.06,384.72c0.026,0,0.053,0.004,0.079,0.004v-0.004l16.097,0.142
					c7.358,0.027,13.245,10.586,13.149,23.585c-0.096,12.999-6.138,23.514-13.497,23.487c-0.1,0-8.454-0.123-8.553-0.127
					l-7.327-0.027c-0.099,0.003-0.198,0.012-0.297,0.012c-7.358-0.027-13.245-10.586-13.149-23.585
					C312.66,395.209,318.702,384.694,326.06,384.72z"/>
				
					<ellipse transform="matrix(0.0091 -1 1 0.0091 -85.3265 730.4047)" style="fill:#131313;" cx="325.887" cy="408.257" rx="18.2" ry="10.302"/>
				<path style="fill:#131313;" d="M320.336,408.235c-0.05,6.797,2.667,12.317,6.067,12.33c3.401,0.012,6.198-5.488,6.248-12.285
					c0.05-6.797-2.667-12.317-6.067-12.329C323.184,395.938,320.386,401.438,320.336,408.235z"/>
				<path style="fill:#131313;" d="M314.996,408.217c-0.078,10.626,4.734,19.258,10.749,19.279
					c6.015,0.022,10.954-8.574,11.033-19.2c0.078-10.626-4.734-19.257-10.749-19.279
					C320.014,388.995,315.074,397.591,314.996,408.217z M318.812,408.231c0.051-6.903,3.26-12.487,7.167-12.472
					c3.907,0.014,7.034,5.622,6.983,12.524c-0.051,6.902-3.26,12.487-7.167,12.472C321.887,420.741,318.761,415.133,318.812,408.231
					z"/>
				<path style="fill:#131313;" d="M321.144,408.238c-0.036,4.155,1.769,7.529,3.613,7.53c1.844,0.002,3.367-3.365,3.404-7.52
					c0.036-4.155-1.429-7.524-3.273-7.526C323.045,400.721,321.18,404.083,321.144,408.238z"/>
			</g>
			<path style="fill:#FFBC0B;" d="M198.734,319.999l0.963-7.949c-3.803-4.149-5.095-7.202,2.412-10.293
				c0.05-0.021,0.11-0.041,0.168-0.062c1.65-0.738,3.831-1.414,6.424-2.036c0.061-0.014,0.12-0.03,0.182-0.043
				c23.24-5.503,88.823-5.531,103.612-5.285c62.826,1.044,72.11,1.465,80.739,13.027c7.341,9.836,30.078,38.8,30.078,38.8h-93.707
				l-25.498,21.525l-99.067-13.02l-11.935-3.747L198.734,319.999z"/>
			<path style="fill:#FFBC0B;" d="M216.46,299.77c0,0-12.708,3.025-15.014,3.974c-7.507,3.091-0.883,3.974-1.75,8.306l-1.562,12.89
				L216.46,299.77z"/>
			<path style="fill:#131313;" d="M313.881,310.588l18.229,30.754h83.024l-21.079-27.549c-6.526-8.298-10.338-11.374-15.19-11.374
				c-6.156,0-45.334-0.039-60.594-0.039C315.973,302.38,308.479,300.827,313.881,310.588z"/>
			<path style="fill:#131313;" d="M201.092,344.155l6.262,4.954l93.209,12.328l22.89-15.713l-15.616-31.081
				c-2.731-7.243-9.827-11.903-17.56-11.527l-22.985,0.458h-0.016l-36.838,0.654c-0.212,0.016-0.425,0.016-0.621,0.049
				c-1.913,0.131-3.76,0.49-5.543,1.063c-2.96,0.916-5.69,2.371-8.044,4.284c-4.643,3.711-7.914,9.074-8.927,15.271L201.092,344.155
				z"/>
			<path style="opacity:0.44;fill:#FFFFFF;" d="M236.441,304.277l22.19,50.096h19.996l-22.435-50.799h-0.016l-19.113,0.654
				C236.85,304.244,236.638,304.244,236.441,304.277z"/>
			<g>
				<polygon style="opacity:0.44;fill:#FFFFFF;" points="328.056,302.38 351.64,341.342 373.69,341.342 350.123,302.38 				"/>
				<polygon style="opacity:0.44;fill:#FFFFFF;" points="358.954,302.38 384.253,341.342 395.432,341.342 370.151,302.38 				"/>
			</g>
			<path style="opacity:0.44;fill:#FFFFFF;" d="M216.231,309.624l20.227,44.75h9.614l-21.797-49.034
				C221.316,306.255,218.585,307.711,216.231,309.624z"/>
			<path style="fill:#131313;" d="M193.776,406.825c0,0-4.252-36.719,18.801-39.027c28.204-2.824,18.939,47.143,18.939,47.143
				h-28.39L193.776,406.825z"/>
			<path style="fill:#131313;" d="M276.294,414.941c0,0,17.756-44.835,46.551-47.143c35.23-2.824,23.656,47.143,23.656,47.143
				H276.294z"/>
			<g>
				<path style="fill:#2F2F2F;" d="M317.45,384.72c7.358,0.027,13.245,10.586,13.149,23.585
					c-0.096,12.999-6.138,23.514-13.497,23.487c-7.358-0.027-13.245-10.586-13.149-23.585
					C304.049,395.209,310.091,384.694,317.45,384.72z"/>
				<path style="fill:#2F2F2F;" d="M317.45,384.72c0.026,0,0.053,0.004,0.079,0.004v-0.004l16.097,0.142
					c7.358,0.027,13.245,10.586,13.149,23.585c-0.096,12.999-6.138,23.514-13.497,23.487c-0.1,0-8.454-0.123-8.553-0.127
					l-7.327-0.027c-0.099,0.003-0.198,0.012-0.297,0.012c-7.358-0.027-13.245-10.586-13.149-23.585
					C304.049,395.209,310.091,384.694,317.45,384.72z"/>
				<path style="fill:#2F2F2F;" d="M317.41,390.057c5.69,0.021,10.242,8.186,10.168,18.237
					c-0.074,10.051-4.747,18.183-10.436,18.162c-5.69-0.021-10.242-8.186-10.168-18.237
					C307.048,398.168,311.72,390.036,317.41,390.057z"/>
				<path style="fill:#2F2F2F;" d="M311.726,408.235c-0.05,6.797,2.667,12.317,6.067,12.33c3.401,0.012,6.198-5.488,6.248-12.285
					c0.05-6.797-2.667-12.317-6.067-12.329C314.573,395.938,311.776,401.438,311.726,408.235z"/>
				<path style="fill:#ECE8E2;" d="M306.385,408.217c-0.078,10.626,4.734,19.258,10.749,19.279
					c6.015,0.022,10.954-8.574,11.033-19.2c0.079-10.626-4.734-19.257-10.749-19.279
					C311.403,388.995,306.464,397.591,306.385,408.217z M310.201,408.231c0.051-6.903,3.26-12.487,7.167-12.472
					c3.907,0.014,7.034,5.622,6.983,12.524c-0.051,6.902-3.26,12.487-7.167,12.472C313.277,420.741,310.15,415.133,310.201,408.231z
					"/>
				<path style="fill:#FFBB00;" d="M312.534,408.238c-0.036,4.155,1.769,7.529,3.613,7.53c1.844,0.002,3.367-3.365,3.404-7.52
					c0.036-4.155-1.429-7.524-3.273-7.526C314.434,400.721,312.57,404.083,312.534,408.238z"/>
			</g>
			<g>
				
					<ellipse transform="matrix(0.0091 -1 1 0.0091 -198.9939 615.6949)" style="fill:#2F2F2F;" cx="211.173" cy="408.257" rx="23.537" ry="13.323"/>
				<path style="fill:#2F2F2F;" d="M211.347,384.72c0.027,0,0.053,0.004,0.079,0.004v-0.004l16.097,0.142
					c7.358,0.027,13.245,10.586,13.149,23.585c-0.096,12.999-6.138,23.514-13.497,23.487c-0.1,0-8.454-0.123-8.553-0.127
					l-7.327-0.027c-0.099,0.003-0.198,0.012-0.297,0.012c-7.358-0.027-13.245-10.586-13.149-23.585
					C197.946,395.209,203.988,384.694,211.347,384.72z"/>
				<path style="fill:#2F2F2F;" d="M211.307,390.057c5.69,0.021,10.242,8.186,10.168,18.237
					c-0.074,10.051-4.747,18.183-10.436,18.162c-5.69-0.021-10.242-8.186-10.168-18.237
					C200.945,398.168,205.617,390.036,211.307,390.057z"/>
				<path style="fill:#2F2F2F;" d="M205.623,408.235c-0.05,6.797,2.667,12.317,6.067,12.33c3.401,0.012,6.198-5.488,6.248-12.285
					c0.05-6.797-2.667-12.317-6.067-12.329C208.47,395.938,205.673,401.438,205.623,408.235z"/>
				<path style="fill:#ECE8E2;" d="M200.282,408.217c-0.078,10.626,4.734,19.258,10.749,19.279
					c6.015,0.022,10.954-8.574,11.033-19.2c0.078-10.626-4.734-19.257-10.749-19.279C205.3,388.995,200.36,397.591,200.282,408.217z
					 M204.098,408.231c0.051-6.903,3.26-12.487,7.167-12.472c3.907,0.014,7.034,5.622,6.983,12.524
					c-0.051,6.902-3.26,12.487-7.167,12.472C207.173,420.741,204.047,415.133,204.098,408.231z"/>
				<path style="fill:#FFBB00;" d="M206.43,408.238c-0.036,4.155,1.769,7.529,3.613,7.53c1.844,0.002,3.367-3.365,3.404-7.52
					c0.036-4.155-1.429-7.524-3.273-7.526C208.331,400.721,206.467,404.083,206.43,408.238z"/>
			</g>
			<path style="fill:#FFBB00;" d="M191.441,348.876c1.249-2.086,3.492-3.367,5.924-3.352c18.961,0.117,104.735,0.621,131.343,0.633
				c0.628,0,1.245,0.089,1.849,0.261c4.196,1.199,22.246,15.014,24.021,42.953c0.834,13.135,20.533,25.569,20.533,25.569h-28.61
				c0,0,0.791-33.479-25.042-34.142c-15.244-0.391-21.858,13.247-23.016,29.791c-0.167,2.38-1.845,4.351-4.23,4.351h-57.809
				c-2.539,0-4.504-2.214-4.202-4.735c1.485-12.396-1.918-31.394-19.997-31.394c-18.546,0-18.429,28.013-18.429,28.013
				s-5.708-2.85-5.708-11.328v-34.417C188.068,356.783,189.234,352.565,191.441,348.876z"/>
			<path style="fill:#CD0049;" d="M192.017,358.349h0.691c2.864,0,5.186-2.322,5.186-5.186l0,0c0-2.864-2.322-5.186-5.186-5.186
				h-0.691c-2.864,0-5.186,2.322-5.186,5.186l0,0C186.831,356.027,189.153,358.349,192.017,358.349z"/>
			<path style="fill:#2F2F2F;" d="M268.783,356.139h8.087c1.311,0,2.373-1.063,2.373-2.373l0,0c0-1.311-1.063-2.373-2.373-2.373
				h-8.087c-1.311,0-2.373,1.063-2.373,2.373l0,0C266.41,355.077,267.473,356.139,268.783,356.139z"/>
			<path style="fill:#2F2F2F;" d="M235.184,356.36h8.087c1.311,0,2.373-1.063,2.373-2.373l0,0c0-1.311-1.063-2.373-2.373-2.373
				h-8.087c-1.311,0-2.373,1.063-2.373,2.373l0,0C232.811,355.297,233.873,356.36,235.184,356.36z"/>
			<path style="fill:#EC6100;" d="M322.639,344.005l-8.604-7.327c-1.306-1.112-3.003-1.652-4.711-1.5l-5.457,0.486
				c-3.98,0.355-6.662,4.233-5.59,8.082l0,0c0.721,2.587,2.982,4.448,5.659,4.657l12.782,0.999c0.16,0.012,0.32,0.012,0.479-0.003
				l3.833-0.342c2.258-0.201,3.406-2.815,2.026-4.614l0,0C322.933,344.283,322.794,344.136,322.639,344.005z"/>
			<polygon style="fill:#FFBC0B;" points="254.609,346.421 260.141,346.421 261.136,303.248 255.604,303.248 			"/>
			<polyline style="opacity:0.2;fill:none;stroke:#EC6100;stroke-miterlimit:10;" points="262.141,346.421 262.509,410.123 
				292.646,410.764 299.964,386.76 321.031,367.798 321.031,349.058 			"/>
			<polyline style="opacity:0.2;fill:none;stroke:#EC6100;stroke-miterlimit:10;" points="253.236,346.421 253.236,409.612 
				238.332,409.612 229.722,380.137 200.577,367.552 200.909,347.35 			"/>
		</g>
		<g>
			<g id="XMLID_500_">
				
					<linearGradient id="XMLID_00000145740877143775588340000013873525954684023946_" gradientUnits="userSpaceOnUse" x1="75.9163" y1="222.6389" x2="106.4481" y2="400.9053" gradientTransform="matrix(-1 0 0 1 225.8974 0)">
					<stop  offset="0" style="stop-color:#FDC0A3"/>
					<stop  offset="1" style="stop-color:#FCAF8A"/>
				</linearGradient>
				<path id="XMLID_498_" style="fill:url(#XMLID_00000145740877143775588340000013873525954684023946_);" d="M101.561,365.681
					h21.799c25.72,0,46.571-20.85,46.571-46.571v-30.717h-68.37V365.681z"/>
				
					<linearGradient id="XMLID_00000166644785190158546710000004981325666726245001_" gradientUnits="userSpaceOnUse" x1="48.9471" y1="183.4101" x2="48.9471" y2="252.5919" gradientTransform="matrix(-1 0 0 1 225.8974 0)">
					<stop  offset="0" style="stop-color:#FDC0A3"/>
					<stop  offset="1" style="stop-color:#FCAF8A"/>
				</linearGradient>
				<path id="XMLID_497_" style="fill:url(#XMLID_00000166644785190158546710000004981325666726245001_);" d="M161.403,252.592
					l46.723-42.458c6.277-5.704,6.742-15.417,1.037-21.694v0c-5.704-6.277-15.417-6.742-21.694-1.037l-46.723,42.458
					L161.403,252.592z"/>
				
					<linearGradient id="XMLID_00000003785314216526887680000002840851870832541334_" gradientUnits="userSpaceOnUse" x1="62.6452" y1="199.6" x2="62.6452" y2="246.6485" gradientTransform="matrix(-1 0 0 1 225.8974 0)">
					<stop  offset="0" style="stop-color:#C5BAB3"/>
					<stop  offset="0.3305" style="stop-color:#D1CAC7"/>
					<stop  offset="1" style="stop-color:#EEF4FB"/>
				</linearGradient>
				<polygon id="XMLID_496_" style="fill:url(#XMLID_00000003785314216526887680000002840851870832541334_);" points="
					168.66,246.648 178.501,237.129 174.785,199.6 148.003,223.917 				"/>
				
					<linearGradient id="XMLID_00000021112742608608602440000008955666419469442961_" gradientUnits="userSpaceOnUse" x1="115.4919" y1="215.8607" x2="146.0237" y2="394.1272" gradientTransform="matrix(-1 0 0 1 225.8974 0)">
					<stop  offset="0" style="stop-color:#FDC0A3"/>
					<stop  offset="1" style="stop-color:#FCAF8A"/>
				</linearGradient>
				<polygon id="XMLID_474_" style="fill:url(#XMLID_00000021112742608608602440000008955666419469442961_);" points="
					19.198,501.737 40.163,348.389 93.307,296.464 134.43,333.694 108.988,501.737 				"/>
				<g id="XMLID_512_">
					
						<linearGradient id="XMLID_00000163780097980919542390000007199275392027031951_" gradientUnits="userSpaceOnUse" x1="109.5094" y1="340.8999" x2="109.5094" y2="308.5078" gradientTransform="matrix(-1 0 0 1 225.8974 0)">
						<stop  offset="0" style="stop-color:#EEF4FB"/>
						<stop  offset="0.6695" style="stop-color:#D1CAC7"/>
						<stop  offset="1" style="stop-color:#C5BAB3"/>
					</linearGradient>
					<path id="XMLID_591_" style="fill:url(#XMLID_00000163780097980919542390000007199275392027031951_);" d="M56.796,293.368
						c18.97-37.009,40.966-72.602,63.752-107.368c11.139-16.997,23.527-32.962,35.974-49.004
						c6.368-8.207,12.658-16.501,18.511-25.08l2.654,213.312c0,2.771-2.247,5.018-5.018,5.018H66.723
						c-6.425,0-11.633-5.208-11.633-11.633v-21.905C55.655,295.593,56.225,294.481,56.796,293.368z"/>
					<path id="XMLID_492_" style="fill:#2F2F2F;" d="M69.153,320.202h94.47c6.993,0,12.663-5.669,12.663-12.663V90.492
						c0-6.993-5.669-12.663-12.663-12.663h-94.47c-6.993,0-12.663,5.669-12.663,12.663v217.047
						C56.49,314.533,62.16,320.202,69.153,320.202z"/>
					<path style="fill:#FFFFFF;" d="M148.558,86.425l-4.65,10.062c-0.261,0.565-0.826,0.926-1.448,0.926H87.239
						c-0.622,0-1.187-0.361-1.448-0.926l-4.65-10.062c-0.261-0.565-0.826-0.926-1.448-0.926H69.95c-4.496,0-8.14,3.644-8.14,8.14
						v187.758c0,4.496,3.644,8.14,8.14,8.14h92.242c4.496,0,8.14-3.644,8.14-8.14V93.639c0-4.496-3.644-8.14-8.14-8.14h-12.187
						C149.384,85.499,148.818,85.861,148.558,86.425z"/>
					<g>
						<defs>
							
								<rect id="SVGID_00000178178884228862762940000003129964303184039824_" x="67.691" y="101.943" width="96.92" height="106.897"/>
						</defs>
						<clipPath id="SVGID_00000116226092417684290210000014169327588586421407_">
							<use xlink:href="#SVGID_00000178178884228862762940000003129964303184039824_"  style="overflow:visible;"/>
						</clipPath>
						<g style="clip-path:url(#SVGID_00000116226092417684290210000014169327588586421407_);">
							<g>
								<rect x="53.627" y="80.253" style="fill:#E4E9F5;" width="116.299" height="137.571"/>
							</g>
							<g>
								<polygon style="fill:#C3E3B2;" points="106.192,181.718 110.975,204.949 146.846,194.358 132.279,171.434 								"/>
							</g>
							<g>
								<polygon style="fill:#C3E3B2;" points="159.828,113.391 135.231,114.416 133.522,96.651 160.853,91.185 								"/>
							</g>
							<g>
								<path style="fill:#88CEF2;" d="M38.068,188.522l-0.406-6.093c9.435-0.629,38.495-9.27,51.604-17.006
									c17.885-10.555,37.664-15.608,53.558-19.668c2.957-0.756,5.75-1.469,8.348-2.173c7.011-1.899,12.287-5.835,18.396-10.393
									c7.271-5.424,15.512-11.573,28.373-15.22c22.673-6.43,33.804-9.221,33.914-9.249l1.481,5.924
									c-0.109,0.027-11.164,2.8-33.729,9.2c-11.778,3.34-19.205,8.881-26.387,14.239c-6.334,4.726-12.317,9.19-20.451,11.393
									c-2.641,0.715-5.454,1.434-8.433,2.195c-15.517,3.964-34.829,8.897-51.965,19.01c-6.247,3.687-16.547,7.946-28.259,11.687
									C53.33,185.813,43.351,188.17,38.068,188.522z"/>
							</g>
							
								<path style="fill:#FFFFFF;stroke:#BAC3E3;stroke-width:0.2835;stroke-linecap:round;stroke-linejoin:round;stroke-miterlimit:10;" d="
								M188.269,133.291c11.565-5.783,45.851-13.186,46.196-13.26l-0.321-1.493c-1.416,0.304-34.82,7.518-46.557,13.387
								c-4.935,2.467-9.296,5.724-13.513,8.874c-5.268,3.934-10.7,7.983-17.281,10.49l-3.868-11.096
								c0.388-0.174,0.735-0.344,1.037-0.51c3.448-1.891,6.502-4.027,10.369-6.731c5.062-3.54,11.361-7.945,21.419-13.776
								c17.352-10.059,51.154-15.482,51.494-15.536l-0.238-1.508c-0.098,0.015-2.993,0.48-7.481,1.376l-5.547-18.49l-30.757,20.778
								l-3.435-11.117l8.932-8.932l-1.079-1.079l-8.362,8.362l-3.436-11.123l-1.458,0.451l3.674,11.893l-8.908,8.908l-16.352,0.503
								l0.047,1.526l16.957-0.522l8.766-8.766l3.333,10.79l-26.123,17.648l-9.885-3.213l6.117-6.404l1.738-33.02l-3.049-0.16
								l-0.536,9.006l-27.463,5.493l1.725,17.934l-5.336,0.45L127.707,95.4l-1.522,0.111l0.552,7.625l-27.685-0.454l-1.933-18.149
								l-3.036,0.323l1.896,17.802l-13.692,1.816l-2.506-13.006l-1.499,0.289l2.489,12.919l-8.873,1.177l-4.208-15.077l-2.941,0.821
								l8.539,30.597l3.579-0.302l1.059,9.954l-9.881,1.134l3.504,11.678l-6.986,0.961c-3.122-4.357-6.898-9.297-10.369-13.736
								l10.69-8.552L51.009,97.148l-1.349,0.715l13.284,25.064l-9.692,7.753c-4.927-6.273-9.034-11.289-9.424-11.766l-2.361,1.936
								c0.118,0.144,6.335,7.738,12.78,16.085L38.77,148.059l7.03,9.978l-6.752,4.66l1.734,2.513l11.394-7.863l4.342,15.44
								l1.469-0.413l-4.484-15.943l4.286-2.958l4.149,11.149l8.381-3.492c0.965,1.849,2.051,3.893,3.176,5.991
								c-10.439,4.382-22.35,7.677-35.583,9.831l0.245,1.507c13.408-2.182,25.48-5.53,36.063-9.987
								c2.01,3.732,4.09,7.54,5.801,10.654c-5.608,2.355-11.251,4.451-17.06,6.607c-5.144,1.909-10.464,3.883-15.99,6.126
								l0.574,1.415c1.754-0.712,3.486-1.395,5.201-2.059l7.725,16.994l15.842-7.921l3.313,8.108l29.103-10.559l1.664,8.082
								l35.219-10.398l11.432,16.122l2.491-1.766l-3.419-4.822l10.048-5.253l-10.186-18.69l14.337-4.402l-1.436-11.489l8.63-0.908
								l8.688,19.019l-7.128,7.286l8.935,19.183l1.384-0.645l-8.489-18.226l22.098-22.589l19.96,5.625l0.828-2.939l-15.891-4.478
								l-0.564-17.055l11.905-1.619l-0.988-12.355l9.742-1.137l-0.354-3.033l-42.289,4.934l-0.509,12.041l-12.82,4.776l0.456,8.671
								l-11.603,1.221l-3.577-10.26c6.791-2.575,12.325-6.701,17.692-10.709C179.15,138.913,183.456,135.698,188.269,133.291z
								 M223.11,87.445l4.91,16.367c-8.488,1.741-21.529,4.818-32.59,9.141l-1.74-5.633L223.11,87.445z M166.011,126.019
								l26.357-17.806l1.64,5.308c-3.273,1.333-6.341,2.778-9.025,4.334c-10.114,5.863-16.442,10.289-21.528,13.845
								c-3.829,2.678-6.853,4.793-10.228,6.644c-0.236,0.129-0.508,0.263-0.808,0.4l-3.573-10.248l7.026-7.356l-0.465,1.431
								L166.011,126.019z M80.691,143.399l-1.086-10.21l19.389-2.225l1.041,9.773L80.691,143.399z M115.044,141.753l0.319,3.347
								l-26.284,6.813l-1.898-6.325L115.044,141.753z M103.061,140.32l-2.179-20.455l15.613-1.317l0.932,19.795L103.061,140.32z
								 M117.006,146.251l-0.448-4.706l22.297-3.068l0.528-0.073l7.094-7.426l3.097,8.883c-4.073,1.427-10.327,3.14-17.264,5.041
								c-13.587,3.723-30.038,8.233-41.295,13.461l-1.496-4.986L117.006,146.251z M134.348,97.265l25.717-5.144l-1.177,19.787
								l-22.946,1.936L134.348,97.265z M129.306,117.468l28.119-2.372l-19.514,20.429l-18.966,2.61l-0.285-6.051l11.666-0.543
								L129.306,117.468z M127.785,117.596l0.905,12.493l-10.102,0.47l-0.571-12.139L127.785,117.596z M126.848,104.664l0.716,9.886
								l-27.006,2.278l-1.344-12.617L126.848,104.664z M96.141,104.176l1.375,12.909l-12.594,1.062l-2.345-12.172L96.141,104.176z
								 M72.313,107.337l8.748-1.16l2.331,12.1l-7.841,0.661L72.313,107.337z M97.839,120.122l0.993,9.324l-19.389,2.225
								l-1.054-9.908L97.839,120.122z M70.032,134.288l8.056-0.924l1.09,10.244l-6.098,0.839L70.032,134.288z M40.889,148.417
								l14.29-10.271c2.301,2.997,4.596,6.049,6.617,8.852l-14.74,10.173L40.889,148.417z M62.816,162.602l-3.73-10.024l4.478-3.091
								c1.984,2.845,3.551,5.287,4.36,6.939c0.47,0.96,1.044,2.094,1.69,3.344L62.816,162.602z M66.541,148.428l19.11-2.63
								l3.968,13.228l-13.314,6.872L66.541,148.428z M77.03,167.246c3.44-1.553,6.716-3.227,9.815-5.024
								c10.727-6.219,30.212-11.558,45.867-15.848c7.186-1.969,13.295-3.644,17.364-5.071l3.824,10.968
								c-3.257,0.987-7.322,2.079-11.996,3.334c-14.202,3.813-33.652,9.036-45.82,15.795c-4.447,2.471-8.84,4.588-13.242,6.515
								C81.142,174.82,79.053,171,77.03,167.246z M135.363,175.784l13.154-5.175l5.227,9.591l-12.524,3.845L135.363,175.784z
								 M134.454,174.501l-2.175-3.067l-12.465,3.254l-2.927-10.245c8.298-2.743,17.003-5.104,24.405-7.092l6.49,11.907
								L134.454,174.501z M85.942,183.529c-0.513-0.926-1.341-2.422-2.36-4.271c4.396-1.928,8.79-4.05,13.244-6.524
								c5.174-2.874,11.714-5.474,18.611-7.807l2.899,10.146L85.942,183.529z M61.207,206.133l-7.032-15.471
								c3.171-1.216,6.277-2.37,9.32-3.5c2.178-0.808,4.332-1.608,6.471-2.416l5.77,14.122L61.207,206.133z M80.486,206.458
								l-9.093-22.254c3.147-1.2,6.263-2.427,9.371-3.734c1.803,3.274,3.046,5.509,3.084,5.578l0.575,1.033l6.825-1.781
								l4.494,15.623L80.486,206.458z M111.555,203.982l-4.615-22.418l-1.495,0.308l2.975,14.451l-11.239,4.078l-4.455-15.487
								l38.283-9.993l13.672,19.281L111.555,203.982z M164.081,199.166l-8.855,4.629l-13.076-18.44l12.339-3.788L164.081,199.166z
								 M187.341,182.159l-8.23-18.018l6.549-0.689l15.663,4.414L187.341,182.159z M187.368,160.761l0.364-8.605l18.078-2.459
								l0.543,16.414L187.368,160.761z M217.6,146.554l-10.32,1.404l-0.368-11.118l9.818-1.145L217.6,146.554z M205.391,137.017
								l0.368,11.147l-17.962,2.443l0.49-11.594L205.391,137.017z M173.602,154.138l11.166-4.16l-0.446,10.545l-10.327,1.087
								L173.602,154.138z M167.362,165.378l1.281,10.247l-13.409,4.117l-12.426-22.799c4.501-1.209,8.424-2.266,11.596-3.229
								l4.382,12.568L167.362,165.378z"/>
						</g>
						
							<polyline style="clip-path:url(#SVGID_00000116226092417684290210000014169327588586421407_);fill:none;stroke:#009ED2;stroke-linecap:round;stroke-linejoin:round;stroke-miterlimit:10;" points="
							128.059,174.367 85.557,185.363 64.305,146.984 101.733,142.226 99.195,118.649 128.481,116.006 129.327,127.49 						"/>
						<g style="clip-path:url(#SVGID_00000116226092417684290210000014169327588586421407_);">
							<path style="fill:#CD0049;" d="M145.801,117.889c0,5.087-6.324,10.586-6.324,10.586s-6.324-5.362-6.324-10.586
								c0-3.493,2.831-6.324,6.324-6.324S145.801,114.397,145.801,117.889z"/>
							<circle style="fill:#FFFFFF;" cx="139.477" cy="117.889" r="4.363"/>
						</g>
						<g style="clip-path:url(#SVGID_00000116226092417684290210000014169327588586421407_);">
							<path style="fill:#009ED2;" d="M137.554,162.274c0,5.087-6.324,10.586-6.324,10.586s-6.324-5.362-6.324-10.586
								c0-3.493,2.831-6.324,6.324-6.324C134.723,155.95,137.554,158.782,137.554,162.274z"/>
							<circle style="fill:#FFFFFF;" cx="131.23" cy="162.274" r="4.363"/>
						</g>
					</g>
					<g>
						<path style="fill:none;stroke:#C6C9CF;stroke-width:0.5;stroke-miterlimit:10;" d="M163.099,235.187H69.203
							c-0.75,0-1.359-0.608-1.359-1.359v-11.626c0-0.75,0.608-1.359,1.359-1.359h93.895c0.75,0,1.359,0.608,1.359,1.359v11.626
							C164.458,234.578,163.849,235.187,163.099,235.187z"/>
						<path style="fill:none;stroke:#C6C9CF;stroke-width:0.5;stroke-miterlimit:10;" d="M163.099,261.802H69.203
							c-0.75,0-1.359-0.608-1.359-1.359v-11.626c0-0.75,0.608-1.359,1.359-1.359h93.895c0.75,0,1.359,0.608,1.359,1.359v11.626
							C164.458,261.193,163.849,261.802,163.099,261.802z"/>
						<path style="fill:#009ED2;" d="M140.548,279.349h-47.75c-0.471,0-0.852-0.381-0.852-0.852v-8.923
							c0-0.47,0.381-0.852,0.852-0.852h47.75c0.47,0,0.852,0.381,0.852,0.852v8.923
							C141.399,278.968,141.018,279.349,140.548,279.349z"/>
						
							<text transform="matrix(1 0 0 1 71.8396 229.687)" style="fill:#282C3B; font-family:'SofiaProRegular'; font-size:5.8677px;">Lorem Ipsum House</text>
						
							<text transform="matrix(1 0 0 1 109.9602 275.8057)" style="fill:#FFFFFF; font-family:'SofiaProRegular'; font-size:5.8677px;">Book</text>
						<g>
							
								<text transform="matrix(1 0 0 1 69.7341 216.5718)" style="fill:#282C3B; font-family:'SofiaPro-Medium'; font-size:4.5637px;">Pick up</text>
						</g>
						
							<text transform="matrix(1 0 0 1 71.8396 256.9814)" style="fill:#282C3B; font-family:'SofiaProRegular'; font-size:5.8677px;">Lorem Ipsum Hotel</text>
						<g>
							
								<text transform="matrix(1 0 0 1 70.6863 243.8667)" style="fill:#282C3B; font-family:'SofiaProRegular'; font-size:4.5637px;">Destination</text>
						</g>
					</g>
					<g id="XMLID_636_">
						<defs>
							
								<rect id="XMLID_490_" x="25.66" y="145.798" transform="matrix(-1.836970e-16 1 -1 -1.836970e-16 315.1977 82.4216)" width="181.456" height="106.024"/>
						</defs>
						<clipPath id="XMLID_00000177444878332940075710000007248452645236753542_">
							<use xlink:href="#XMLID_490_"  style="overflow:visible;"/>
						</clipPath>
					</g>
					<path id="XMLID_489_" style="fill:#E7E8EB;" d="M110.067,304.467c0,3.571,2.895,6.465,6.465,6.465
						c3.571,0,6.465-2.895,6.465-6.465c0-3.571-2.895-6.465-6.465-6.465C112.962,298.002,110.067,300.896,110.067,304.467z"/>
					<path id="XMLID_488_" style="opacity:0.4;fill:#FFFFFF;" d="M100.842,92.611h37.569c1.102,0,1.996-0.894,1.996-1.996l0,0
						c0-1.102-0.894-1.996-1.996-1.996h-37.569c-1.102,0-1.996,0.894-1.996,1.996l0,0C98.846,91.717,99.74,92.611,100.842,92.611z"
						/>
					<path style="opacity:0.4;fill:#FFFFFF;" d="M94.901,90.532c0,1.258-1.02,2.279-2.279,2.279s-2.279-1.02-2.279-2.279
						s1.02-2.279,2.279-2.279S94.901,89.273,94.901,90.532z"/>
				</g>
				
					<linearGradient id="XMLID_00000152230111133526881920000004751679996152342185_" gradientUnits="userSpaceOnUse" x1="51.5528" y1="300.4417" x2="51.5528" y2="337.638" gradientTransform="matrix(-1 0 0 1 225.8974 0)">
					<stop  offset="0" style="stop-color:#FDC0A3"/>
					<stop  offset="1" style="stop-color:#FCAF8A"/>
				</linearGradient>
				<path id="XMLID_459_" style="fill:url(#XMLID_00000152230111133526881920000004751679996152342185_);" d="M173.123,336.259
					l15.146-6.473c7.722-3.508,11.139-12.612,7.631-20.334l0,0c-3.508-7.722-12.612-11.139-20.334-7.631l-15.146,6.474
					c-7.722,3.508-11.139,12.612-7.631,20.334l0,0C156.297,336.351,165.401,339.767,173.123,336.259z"/>
				
					<linearGradient id="XMLID_00000055695328385705991070000005282740897404231081_" gradientUnits="userSpaceOnUse" x1="52.366" y1="271.5885" x2="52.366" y2="313.002" gradientTransform="matrix(-1 0 0 1 225.8974 0)">
					<stop  offset="0" style="stop-color:#C5BAB3"/>
					<stop  offset="0.3305" style="stop-color:#D1CAC7"/>
					<stop  offset="1" style="stop-color:#EEF4FB"/>
				</linearGradient>
				<path id="XMLID_455_" style="fill:url(#XMLID_00000055695328385705991070000005282740897404231081_);" d="M168.541,311.623
					l20.469-9.299l-8.304-3.403c7.722-3.508,22.507-10.601,18.999-18.324l0,0c-3.508-7.722-12.612-11.139-20.334-7.631
					l-23.534,10.691c-7.722,3.508-11.139,12.612-7.631,20.334l0,0C151.715,311.715,160.819,315.131,168.541,311.623z"/>
				
					<linearGradient id="XMLID_00000005233795225693104930000005186115003258839220_" gradientUnits="userSpaceOnUse" x1="51.0123" y1="267.687" x2="51.0123" y2="309.1005" gradientTransform="matrix(-1 0 0 1 225.8974 0)">
					<stop  offset="0" style="stop-color:#FDC0A3"/>
					<stop  offset="1" style="stop-color:#FCAF8A"/>
				</linearGradient>
				<path id="XMLID_453_" style="fill:url(#XMLID_00000005233795225693104930000005186115003258839220_);" d="M169.47,307.722
					l23.534-10.691c7.722-3.508,11.139-12.612,7.631-20.334v0c-3.508-7.722-12.612-11.139-20.334-7.631l-23.534,10.691
					c-7.722,3.508-11.139,12.612-7.631,20.334l0,0C152.644,307.813,161.748,311.23,169.47,307.722z"/>
				
					<linearGradient id="XMLID_00000054956026911920719910000002695274084258964371_" gradientUnits="userSpaceOnUse" x1="52.0675" y1="246.2826" x2="52.0675" y2="277.0089" gradientTransform="matrix(-1 0 0 1 225.8974 0)">
					<stop  offset="0" style="stop-color:#C5BAB3"/>
					<stop  offset="0.3305" style="stop-color:#D1CAC7"/>
					<stop  offset="1" style="stop-color:#EEF4FB"/>
				</linearGradient>
				<path id="XMLID_452_" style="fill:url(#XMLID_00000054956026911920719910000002695274084258964371_);" d="M164.438,276.998
					h25.848c8.482,0,12.529,0.744,1.939-10.032l-3.716-5.574c0-8.482,10.259-15.11,1.777-15.11h-25.848
					c-8.482,0-15.358,6.876-15.358,15.358v0C149.081,270.122,155.956,276.998,164.438,276.998z"/>
				
					<linearGradient id="XMLID_00000016072237941411198050000004737388471805484685_" gradientUnits="userSpaceOnUse" x1="47.0489" y1="243.3101" x2="47.0489" y2="274.0253" gradientTransform="matrix(-1 0 0 1 225.8974 0)">
					<stop  offset="0" style="stop-color:#FDC0A3"/>
					<stop  offset="1" style="stop-color:#FCAF8A"/>
				</linearGradient>
				<path id="XMLID_451_" style="fill:url(#XMLID_00000016072237941411198050000004737388471805484685_);" d="M165.925,274.025
					h25.848c8.482,0,15.358-6.876,15.358-15.358l0,0c0-8.482-6.876-15.358-15.358-15.358h-25.848
					c-8.482,0-15.358,6.876-15.358,15.358l0,0C150.567,267.15,157.443,274.025,165.925,274.025z"/>
				<path id="XMLID_529_" style="fill:#FAEAE4;" d="M152.017,269.567h16.248c6.006,0,10.874-4.868,10.874-10.874l0,0
					c0-6.006-4.868-10.874-10.874-10.874h-16.248V269.567z"/>
				<path id="XMLID_585_" style="fill:#FAEAE4;" d="M156.381,307.896l15.068-6.078c5.57-2.247,8.263-8.583,6.017-14.152l0,0
					c-2.247-5.57-8.583-8.263-14.152-6.017l-15.068,6.078L156.381,307.896z"/>
				<path id="XMLID_594_" style="fill:#FAEAE4;" d="M159.768,337.022l15.068-6.078c5.57-2.247,8.263-8.583,6.017-14.152l0,0
					c-2.246-5.569-8.583-8.263-14.152-6.017l-15.068,6.078L159.768,337.022z"/>
			</g>
			<g id="XMLID_501_">
				
					<linearGradient id="XMLID_00000104697234682418118800000016487894568064663188_" gradientUnits="userSpaceOnUse" x1="135.2283" y1="212.6129" x2="165.76" y2="390.8782" gradientTransform="matrix(-0.9482 0.3177 0.3177 0.9482 105.2209 -41.0354)">
					<stop  offset="0" style="stop-color:#FDC0A3"/>
					<stop  offset="1" style="stop-color:#FCAF8A"/>
				</linearGradient>
				<path id="XMLID_450_" style="fill:url(#XMLID_00000104697234682418118800000016487894568064663188_);" d="M40.551,348.401
					l-11.821-48.826c-0.453-2.469-0.6-4.981-0.438-7.486c0.729-11.223,0.012-38.667,2.693-56.95
					c2.052-13.992-6.051-42.165,14.885-39.478c7.579,0.973,13.676,6.712,11.735,29.025l1.196,12.609
					c0.744,7.84,4.969,14.92,11.485,19.343c5.471,3.714,10.092,7.591,14.52,17.12c5.188,11.165,6.538,37.902-7.354,47.509
					c-8.015,5.542-10.203,23.947-10.203,23.947L40.551,348.401z"/>
				<path id="XMLID_445_" style="fill:#FEECE6;" d="M50.934,198.532l-16.844,0.535c0,0-2.209,21.386,2.899,22.719
					C53.319,226.046,50.934,198.532,50.934,198.532z"/>
			</g>
			<polygon style="fill:#ECE8E2;" points="127.148,407.331 128.913,381.168 30.379,381.168 27.638,407.331 			"/>
			<polygon id="XMLID_460_" style="fill:#2F2F2F;" points="14.129,501.737 135.962,501.737 135.867,401.998 26.115,401.998 			"/>
		</g>
	</g>
</g>
</svg>
